<svg width="90" height="90" viewBox="0 0 90 90" fill="none" xmlns="http://www.w3.org/2000/svg">
<circle cx="45" cy="45" r="45" fill="#EC374A"/>
<path d="M53.4624 37L42.5725 48.0925L36.9925 42.49L34 45.4825L42.7975 54.2575L56.9275 40.555L53.4624 37Z" fill="white"/>
<path d="M44.4999 22C32.0736 22 22 32.0736 22 44.4999C22 56.9263 32.0736 66.9999 44.4999 66.9999C56.9263 66.9999 66.9999 56.9263 66.9999 44.4999C66.9999 32.0736 56.9264 22 44.4999 22ZM44.4999 62.9274C34.3227 62.9274 26.0725 54.6771 26.0725 44.4999C26.0725 34.3227 34.3227 26.0725 44.4999 26.0725C54.672 26.0848 62.915 34.3278 62.9274 44.4999C62.9274 54.6773 54.6773 62.9274 44.4999 62.9274Z" fill="white"/>
<path d="M60 51C53.9329 51 49 55.9329 49 62C49 68.0671 53.9329 73 60 73C66.0671 73 71 68.0671 71 62C71 55.9329 66.0671 51 60 51Z" fill="#EC374A" stroke="#EC374A" stroke-width="4"/>
<path d="M53.364 55.3639C49.8549 58.873 49.8549 64.5828 53.364 68.0919C56.873 71.6009 62.5828 71.6009 66.0919 68.0919C69.6009 64.5828 69.6009 58.873 66.0919 55.3639C62.5828 51.8549 56.873 51.8549 53.364 55.3639ZM63.7054 59.3414L61.3189 61.7279L63.7054 64.1144L62.1144 65.7054L59.7279 63.3189L57.3414 65.7054L55.7505 64.1144L58.1369 61.7279L55.7505 59.3414L57.3414 57.7504L59.7279 60.1369L62.1144 57.7504L63.7054 59.3414Z" fill="white"/>
</svg>
