<svg width="90" height="90" viewBox="0 0 90 90" fill="none" xmlns="http://www.w3.org/2000/svg">
<circle cx="45" cy="45" r="45" fill="#00A3FF"/>
<path d="M53.4624 37L42.5725 48.0925L36.9925 42.49L34 45.4825L42.7975 54.2575L56.9275 40.555L53.4624 37Z" fill="white"/>
<path d="M44.4999 22C32.0736 22 22 32.0736 22 44.4999C22 56.9263 32.0736 66.9999 44.4999 66.9999C56.9263 66.9999 66.9999 56.9263 66.9999 44.4999C66.9999 32.0736 56.9264 22 44.4999 22ZM44.4999 62.9274C34.3227 62.9274 26.0725 54.6771 26.0725 44.4999C26.0725 34.3227 34.3227 26.0725 44.4999 26.0725C54.672 26.0848 62.915 34.3278 62.9274 44.4999C62.9274 54.6773 54.6773 62.9274 44.4999 62.9274Z" fill="white"/>
<path d="M60 51C53.9329 51 49 55.9329 49 62C49 68.0671 53.9329 73 60 73C66.0671 73 71 68.0671 71 62C71 55.9329 66.0671 51 60 51Z" fill="#00A3FF" stroke="#00A3FF" stroke-width="4"/>
<path d="M60 53C55.0375 53 51 57.0375 51 62C51 66.9625 55.0375 71 60 71C64.9625 71 69 66.9625 69 62C69 57.0375 64.9625 53 60 53ZM64.5 63.125H61.125V66.5H58.875V63.125H55.5V60.875H58.875V57.5H61.125V60.875H64.5V63.125Z" fill="white"/>
</svg>
